<?xml version="1.0" encoding="UTF-8"?>
<svg id="Ebene_1" xmlns="http://www.w3.org/2000/svg" version="1.1" viewBox="0 0 426.8 426.8">
  <!-- Generator: Adobe Illustrator 29.2.1, SVG Export Plug-In . SVG Version: 2.1.0 Build 116)  -->
  <defs>
    <style>
      .st0 {
        fill: #fff;
      }
    </style>
  </defs>
  <g id="Refresh">
    <path class="st0" d="M405.6,342.6l-49.9-.6c71.1-78.5,65.1-199.9-13.4-271-34.7-31.5-79.8-49.1-126.7-49.6-11.4-.5-21,8.3-21.6,19.7,0,.5,0,.9,0,1.4-.1,11.8,9.3,21.4,21.1,21.6,0,0,0,0,0,0,82.4.9,148.4,68.3,147.6,150.7-.4,38.9-16,76.1-43.4,103.6l.7-62.1c.1-11.8-9.3-21.4-21.1-21.6,0,0,0,0,0,0-11.4-.5-21,8.3-21.6,19.7,0,.5,0,.9,0,1.4l-1.3,106.7c-.1,11.8,9.3,21.4,21.1,21.6,0,0,0,0,0,0l107.9,1.2h.3c11.8,0,21.4-9.4,21.5-21.2,0-11.8-9.4-21.4-21.2-21.5h0Z"/>
    <path class="st0" d="M211.6,362.7c-82.4-.9-148.4-68.3-147.6-150.7.4-38.9,16-76,43.4-103.6l-.7,62c-.1,11.8,9.3,21.4,21.1,21.6,0,0,0,0,0,0h.2c11.7,0,21.2-9.4,21.3-21.1l1.3-106.7c.1-11.8-9.3-21.4-21.1-21.6,0,0,0,0,0,0l-107.9-1.2C10,41.1.4,50.2,0,61.8c0,.3,0,.5,0,.8-.1,11.8,9.3,21.4,21.1,21.6,0,0,0,0,0,0l49.9.6C-.2,163.3,5.8,284.6,84.4,355.8c34.8,31.5,79.8,49.1,126.7,49.7h.2c11.8,0,21.4-9.4,21.5-21.2,0-11.8-9.4-21.4-21.2-21.5Z"/>
  </g>
</svg>