<svg width="57" height="55" viewBox="0 0 57 55" fill="none" xmlns="http://www.w3.org/2000/svg">
<ellipse cx="28.5" cy="27.5" rx="28.5" ry="27.5" fill="white"/>
<path d="M45.1 22.5H43.95L36.1314 12.7264C35.7004 12.1878 35.1537 11.753 34.5319 11.4541C33.9101 11.1553 33.229 11.0001 32.5391 11H17.1643C15.2834 11 13.5922 12.145 12.8935 13.8915L9.45 22.6624C7.46913 23.1756 6 24.9588 6 27.1V35.15C6 35.7854 6.51462 36.3 7.15 36.3H10.6C10.6 40.1108 13.6892 43.2 17.5 43.2C21.3108 43.2 24.4 40.1108 24.4 36.3H33.6C33.6 40.1108 36.6892 43.2 40.5 43.2C44.3108 43.2 47.4 40.1108 47.4 36.3H50.85C51.4854 36.3 52 35.7854 52 35.15V29.4C52 25.5892 48.9108 22.5 45.1 22.5ZM17.5 39.75C15.5975 39.75 14.05 38.2025 14.05 36.3C14.05 34.3975 15.5975 32.85 17.5 32.85C19.4025 32.85 20.95 34.3975 20.95 36.3C20.95 38.2025 19.4025 39.75 17.5 39.75ZM22.675 22.5H14.4043L17.1643 15.6H22.675V22.5ZM26.125 22.5V15.6H32.5391L38.0591 22.5H26.125ZM40.5 39.75C38.5975 39.75 37.05 38.2025 37.05 36.3C37.05 34.3975 38.5975 32.85 40.5 32.85C42.4025 32.85 43.95 34.3975 43.95 36.3C43.95 38.2025 42.4025 39.75 40.5 39.75Z" fill="#2963F5"/>
</svg>
