<svg width="24" height="25" viewBox="0 0 24 25" fill="none" xmlns="http://www.w3.org/2000/svg">
<path d="M22.34 9.75L20.34 8.75C19.97 8.57 19.51 8.71 19.33 9.08C19.14 9.46 19.29 9.91 19.66 10.09L21.25 10.88V15.67L17.5 15.68V5.42C17.5 3.42 16.16 2.42 14.5 2.42H6.5C4.84 2.42 3.5 3.42 3.5 5.42V21.67H2C1.59 21.67 1.25 22.01 1.25 22.42C1.25 22.83 1.59 23.17 2 23.17H19C19.41 23.17 19.75 22.83 19.75 22.42C19.75 22.01 19.41 21.67 19 21.67H17.5V17.18L22 17.17C22.42 17.17 22.75 16.83 22.75 16.42V10.42C22.75 10.14 22.59 9.88 22.34 9.75ZM6 7.31C6 5.92 6.85 5.42 7.89 5.42H13.12C14.15 5.42 15 5.92 15 7.31V8.54C15 9.92 14.15 10.42 13.11 10.42H7.89C6.85 10.42 6 9.92 6 8.53V7.31ZM6.5 12.67H9.5C9.91 12.67 10.25 13.01 10.25 13.42C10.25 13.83 9.91 14.17 9.5 14.17H6.5C6.09 14.17 5.75 13.83 5.75 13.42C5.75 13.01 6.09 12.67 6.5 12.67Z" fill="#90A3BF"/>
</svg>
